<svg xmlns="http://www.w3.org/2000/svg" width="60.686" height="34.83" viewBox="0 0 60.686 34.83">
  <path id="Path_8" data-name="Path 8" d="M-94.384,1252.33a6.49,6.49,0,0,0-6.481,6.481v2.323h-6.5v2.167h17.3v23.858H-87.9v-4.487h15.171v4.487h2.167v-6.5h2.5a1.081,1.081,0,0,0,1.084-1.084,1.081,1.081,0,0,0-1.084-1.083h-2.5v-6.5h3.3a1.081,1.081,0,0,0,1.084-1.084,1.081,1.081,0,0,0-1.084-1.084h-3.3V1263.3h23.883v-2.167H-70.565v-2.323a6.49,6.49,0,0,0-6.481-6.481,6.49,6.49,0,0,0-6.481,6.481v2.323H-87.9v-2.323A6.49,6.49,0,0,0-94.384,1252.33Zm0,2.167a4.28,4.28,0,0,1,4.314,4.314v2.323H-98.7v-2.323A4.28,4.28,0,0,1-94.384,1254.5Zm17.339,0a4.28,4.28,0,0,1,4.314,4.314v2.323h-8.627v-2.323A4.28,4.28,0,0,1-77.046,1254.5Zm-10.858,8.8h15.171v4.2H-87.9Zm-11.882,2.185a1.081,1.081,0,0,0-1.084,1.083,1.082,1.082,0,0,0,1.084,1.084h3.543a1.082,1.082,0,0,0,1.084-1.084,1.081,1.081,0,0,0-1.084-1.083h-3.543Zm6.51,0a1.083,1.083,0,0,0-1.084,1.083,1.084,1.084,0,0,0,1.084,1.084,1.084,1.084,0,0,0,1.084-1.084A1.083,1.083,0,0,0-93.275,1265.487Zm26,0a1.081,1.081,0,0,0-1.084,1.083,1.082,1.082,0,0,0,1.084,1.084h3.543a1.082,1.082,0,0,0,1.084-1.084,1.081,1.081,0,0,0-1.084-1.083h-3.543Zm6.51,0a1.083,1.083,0,0,0-1.084,1.083,1.084,1.084,0,0,0,1.084,1.084,1.084,1.084,0,0,0,1.084-1.084A1.083,1.083,0,0,0-60.765,1265.487Zm6.489,0a1.081,1.081,0,0,0-1.084,1.083,1.082,1.082,0,0,0,1.084,1.084h3.539a1.082,1.082,0,0,0,1.084-1.084,1.081,1.081,0,0,0-1.084-1.083h-3.539Zm6.51,0a1.083,1.083,0,0,0-1.084,1.083,1.084,1.084,0,0,0,1.084,1.084,1.084,1.084,0,0,0,1.084-1.084A1.083,1.083,0,0,0-47.765,1265.487Zm-40.138,4.182h15.171V1274H-87.9Zm-18.38.151a1.084,1.084,0,0,0-1.084,1.084,1.084,1.084,0,0,0,1.084,1.084,1.084,1.084,0,0,0,1.084-1.084A1.084,1.084,0,0,0-106.284,1269.82Zm2.967,0a1.081,1.081,0,0,0-1.084,1.084,1.081,1.081,0,0,0,1.084,1.084h3.543a1.081,1.081,0,0,0,1.084-1.084,1.081,1.081,0,0,0-1.084-1.084h-3.543Zm42.542,0a1.084,1.084,0,0,0-1.084,1.084,1.084,1.084,0,0,0,1.084,1.084,1.084,1.084,0,0,0,1.084-1.084A1.084,1.084,0,0,0-60.774,1269.82Zm2.967,0a1.081,1.081,0,0,0-1.084,1.084,1.081,1.081,0,0,0,1.084,1.084h3.543a1.081,1.081,0,0,0,1.084-1.084,1.081,1.081,0,0,0-1.084-1.084h-3.543Zm-41.979,4.335a1.084,1.084,0,0,0-1.084,1.084,1.084,1.084,0,0,0,1.084,1.084,1.084,1.084,0,0,0,1.084-1.084A1.084,1.084,0,0,0-99.786,1274.155Zm2.967,0a1.081,1.081,0,0,0-1.084,1.084,1.081,1.081,0,0,0,1.084,1.084h3.543a1.081,1.081,0,0,0,1.084-1.084,1.081,1.081,0,0,0-1.084-1.084h-3.543Zm29.543,0a1.084,1.084,0,0,0-1.084,1.084,1.084,1.084,0,0,0,1.084,1.084,1.084,1.084,0,0,0,1.084-1.084A1.084,1.084,0,0,0-67.276,1274.155Zm2.967,0a1.081,1.081,0,0,0-1.084,1.084,1.081,1.081,0,0,0,1.084,1.084h3.543a1.081,1.081,0,0,0,1.084-1.084,1.081,1.081,0,0,0-1.084-1.084h-3.543Zm10.032,0a1.084,1.084,0,0,0-1.084,1.084,1.084,1.084,0,0,0,1.084,1.084,1.084,1.084,0,0,0,1.084-1.084A1.084,1.084,0,0,0-54.276,1274.155Zm2.967,0a1.081,1.081,0,0,0-1.084,1.084,1.081,1.081,0,0,0,1.084,1.084h3.543a1.081,1.081,0,0,0,1.084-1.084,1.081,1.081,0,0,0-1.084-1.084h-3.543Zm-36.6,2.015h15.171v4.334H-87.9Zm-16.213,2.32a1.081,1.081,0,0,0-1.084,1.084,1.081,1.081,0,0,0,1.084,1.083h3.543a1.081,1.081,0,0,0,1.084-1.083,1.081,1.081,0,0,0-1.084-1.084h-3.543Zm6.51,0a1.084,1.084,0,0,0-1.084,1.084,1.083,1.083,0,0,0,1.084,1.083,1.083,1.083,0,0,0,1.084-1.083A1.084,1.084,0,0,0-97.606,1278.49Zm32.51,0a1.084,1.084,0,0,0-1.084,1.084,1.083,1.083,0,0,0,1.084,1.083,1.083,1.083,0,0,0,1.084-1.083A1.084,1.084,0,0,0-65.1,1278.49Zm6.489,0a1.081,1.081,0,0,0-1.084,1.084,1.081,1.081,0,0,0,1.084,1.083h3.543a1.081,1.081,0,0,0,1.084-1.083,1.081,1.081,0,0,0-1.084-1.084h-3.543Zm6.51,0a1.084,1.084,0,0,0-1.084,1.084,1.083,1.083,0,0,0,1.084,1.083,1.083,1.083,0,0,0,1.084-1.083A1.084,1.084,0,0,0-52.1,1278.49Zm-47.69,4.335a1.084,1.084,0,0,0-1.084,1.084,1.083,1.083,0,0,0,1.084,1.084,1.083,1.083,0,0,0,1.084-1.084A1.084,1.084,0,0,0-99.786,1282.824Zm2.967,0a1.081,1.081,0,0,0-1.084,1.084,1.081,1.081,0,0,0,1.084,1.084h3.543a1.081,1.081,0,0,0,1.084-1.084,1.081,1.081,0,0,0-1.084-1.084h-3.543Zm29.543,0a1.084,1.084,0,0,0-1.084,1.084,1.084,1.084,0,0,0,1.084,1.084,1.083,1.083,0,0,0,1.084-1.084A1.084,1.084,0,0,0-67.275,1282.824Zm2.967,0a1.081,1.081,0,0,0-1.084,1.084,1.081,1.081,0,0,0,1.084,1.084h3.543a1.081,1.081,0,0,0,1.084-1.084,1.081,1.081,0,0,0-1.084-1.084h-3.543Zm10.032,0a1.084,1.084,0,0,0-1.084,1.084,1.083,1.083,0,0,0,1.084,1.084,1.083,1.083,0,0,0,1.084-1.084A1.084,1.084,0,0,0-54.276,1282.824Zm2.967,0a1.081,1.081,0,0,0-1.084,1.084,1.081,1.081,0,0,0,1.084,1.084h3.543a1.081,1.081,0,0,0,1.084-1.084,1.081,1.081,0,0,0-1.084-1.084h-3.543Z" transform="translate(107.367 -1252.33)" fill="#fff"/>
</svg>
