<?xml version="1.0" standalone="no"?>
<!DOCTYPE svg PUBLIC "-//W3C//DTD SVG 20010904//EN"
 "http://www.w3.org/TR/2001/REC-SVG-20010904/DTD/svg10.dtd">
<svg version="1.0" xmlns="http://www.w3.org/2000/svg"
 width="700.000000pt" height="700.000000pt" viewBox="0 0 700.000000 700.000000"
 preserveAspectRatio="xMidYMid meet">
<metadata>
Created by potrace 1.11, written by Peter Selinger 2001-2013
</metadata>
<g transform="translate(0.000000,700.000000) scale(0.100000,-0.100000)"
fill="#000000" stroke="none">
<path d="M675 6983 c-268 -57 -506 -257 -613 -515 -67 -160 -62 56 -62 -2970
0 -2362 2 -2753 15 -2812 36 -172 117 -317 246 -444 97 -96 202 -159 349 -208
l85 -29 2805 0 2805 0 85 29 c147 49 252 112 349 208 109 107 176 215 227 368
l29 85 0 2795 c0 2707 -1 2797 -19 2865 -71 264 -259 480 -508 583 -160 67 57
62 -2975 61 -2400 -1 -2757 -3 -2818 -16z m1480 -2025 c144 -31 293 -151 358
-288 47 -99 57 -156 57 -310 l0 -130 190 0 190 0 0 123 c0 216 44 341 160 457
176 176 433 214 654 97 117 -62 226 -201 261 -332 9 -33 19 -124 22 -202 l6
-143 1014 0 1013 0 0 -90 0 -90 -1015 0 -1015 0 0 -279 0 -280 161 -3 161 -3
25 -29 c20 -24 24 -36 19 -65 -11 -70 -27 -76 -206 -79 l-160 -3 0 -280 0
-279 123 0 c127 -1 143 -5 165 -47 19 -35 14 -72 -13 -98 -23 -24 -30 -25
-150 -25 l-125 0 0 -280 0 -280 -90 0 -90 0 0 190 0 190 -650 0 -650 0 0 -190
0 -190 -90 0 -90 0 0 1015 0 1015 -735 0 -735 0 0 90 0 90 280 0 280 0 0 138
c0 204 38 318 143 430 143 152 322 206 532 160z m-236 -1124 c24 -20 31 -34
31 -62 -1 -81 -30 -92 -235 -92 -205 0 -234 11 -235 92 0 28 7 42 31 62 30 26
32 26 204 26 172 0 174 0 204 -26z m240 11 c82 -42 44 -165 -50 -165 -31 0
-79 53 -79 87 0 34 24 71 54 83 31 13 44 12 75 -5z m2533 -13 c34 -33 31 -97
-5 -128 -27 -23 -33 -24 -206 -24 -164 0 -180 2 -204 20 -32 25 -43 70 -25
107 23 49 47 54 240 51 169 -3 179 -4 200 -26z m256 -8 c31 -36 29 -79 -7
-115 -33 -32 -58 -36 -100 -14 -32 16 -41 33 -41 79 0 80 94 112 148 50z m841
10 c24 -20 31 -34 31 -62 -1 -81 -30 -92 -235 -92 -205 0 -234 11 -235 92 0
28 7 42 31 62 30 26 32 26 204 26 172 0 174 0 204 -26z m240 11 c16 -8 34 -28
41 -45 26 -63 -33 -130 -102 -115 -57 13 -86 85 -52 133 28 40 69 50 113 27z
m-4958 -384 c71 -71 -10 -183 -99 -137 -57 29 -65 107 -15 146 37 29 79 26
114 -9z m532 17 c34 -17 46 -39 47 -80 0 -28 -7 -42 -31 -62 -30 -26 -32 -26
-204 -26 -172 0 -174 0 -204 26 -49 41 -42 112 14 142 28 16 349 16 378 0z
m3338 -17 c35 -35 38 -77 9 -114 -63 -80 -185 -6 -145 89 24 59 90 71 136 25z
m538 14 c33 -16 41 -33 41 -80 0 -25 -8 -40 -31 -59 -30 -26 -32 -26 -204 -26
-172 0 -174 0 -204 26 -49 41 -42 112 14 142 32 18 349 15 384 -3z m-3876
-367 c33 -17 46 -39 47 -75 0 -48 -36 -85 -84 -85 -52 0 -86 33 -86 84 0 69
64 108 123 76z m572 -11 c38 -32 39 -88 2 -125 l-27 -27 -186 0 -186 0 -24 28
c-26 31 -32 81 -11 108 27 34 51 38 229 39 170 0 178 -1 203 -23z m2208 3 c80
-63 6 -185 -89 -145 -59 24 -71 90 -25 136 35 35 77 38 114 9z m540 9 c41 -19
59 -78 36 -121 -20 -38 -68 -48 -227 -48 -172 0 -204 8 -226 55 -20 42 -13 78
21 105 23 18 41 20 199 20 106 0 183 -4 197 -11z m550 -1 c33 -17 46 -39 47
-75 0 -48 -36 -85 -84 -85 -52 0 -86 33 -86 84 0 69 64 108 123 76z m570 -8
c34 -27 41 -63 21 -105 -23 -50 -59 -57 -253 -53 l-163 3 -24 28 c-37 43 -27
113 20 135 12 6 98 11 197 11 161 1 178 -1 202 -19z m-4488 -375 c33 -32 34
-89 3 -122 -21 -22 -26 -23 -210 -23 -187 0 -189 0 -213 25 -34 33 -34 87 0
120 24 25 26 25 210 25 184 0 186 0 210 -25z m251 1 c57 -48 22 -146 -52 -146
-46 0 -63 9 -79 41 -21 40 -19 63 11 98 33 39 80 42 120 7z m2769 -1 c55 -54
16 -145 -61 -145 -52 0 -84 31 -84 82 0 79 90 119 145 63z m850 2 c35 -30 37
-88 4 -123 -22 -24 -24 -24 -211 -24 -187 0 -189 0 -213 25 -17 16 -25 35 -25
60 0 25 8 44 25 60 24 25 26 25 209 25 178 0 186 -1 211 -23z m249 1 c40 -35
43 -78 11 -116 -20 -24 -35 -32 -60 -32 -47 0 -64 8 -80 41 -22 42 -18 67 14
100 36 36 79 38 115 7z m-4049 -373 c17 -16 25 -35 25 -60 0 -25 -8 -44 -25
-60 -16 -17 -35 -25 -60 -25 -25 0 -44 8 -60 25 -17 16 -25 35 -25 60 0 25 8
44 25 60 16 17 35 25 60 25 25 0 44 -8 60 -25z m550 2 c21 -17 27 -32 27 -62
0 -30 -6 -45 -27 -62 -25 -22 -33 -23 -211 -23 -183 0 -185 0 -209 25 -17 16
-25 35 -25 60 0 25 8 44 25 60 24 25 26 25 209 25 178 0 186 -1 211 -23z
m2215 -2 c51 -54 15 -145 -57 -145 -46 0 -68 13 -83 49 -36 89 75 165 140 96z
m555 -1 c14 -15 25 -38 25 -51 0 -31 -25 -79 -45 -87 -9 -3 -99 -6 -200 -6
l-183 0 -26 31 c-14 17 -26 41 -26 54 0 13 12 37 26 54 l26 31 189 0 190 0 24
-26z m550 1 c54 -53 16 -145 -60 -145 -49 0 -85 36 -85 85 0 49 36 85 85 85
25 0 44 -8 60 -25z m551 1 c38 -32 38 -90 -1 -123 -25 -22 -33 -23 -211 -23
-183 0 -185 0 -209 25 -17 16 -25 35 -25 60 0 25 8 44 25 60 24 25 26 25 209
25 180 0 186 -1 212 -24z"/>
<path d="M1937 4790 c-110 -28 -201 -104 -250 -208 -29 -62 -31 -75 -35 -209
l-5 -143 373 0 372 0 -4 153 c-4 178 -15 214 -98 301 -67 71 -149 108 -245
112 -38 2 -87 -1 -108 -6z"/>
<path d="M3399 4786 c-102 -27 -190 -103 -238 -205 -24 -51 -26 -69 -29 -203
l-4 -148 371 0 371 0 0 118 c0 141 -17 216 -65 289 -84 127 -255 190 -406 149z"/>
<path d="M2570 3870 l0 -180 650 0 650 0 0 180 0 180 -650 0 -650 0 0 -180z"/>
<path d="M2572 3323 l3 -188 645 0 645 0 3 188 2 187 -650 0 -650 0 2 -187z"/>
<path d="M2570 2770 l0 -190 650 0 650 0 0 190 0 190 -650 0 -650 0 0 -190z"/>
</g>
</svg>
